<svg width="24" height="24" viewBox="0 0 24 24" fill="none" xmlns="http://www.w3.org/2000/svg">
<path d="M19.5525 2.99703C19.3117 3.01455 19.0754 3.07103 18.8527 3.16428H18.8497C18.636 3.24903 17.6197 3.67653 16.0747 4.32453L10.5382 6.65628C6.56547 8.32878 2.66022 9.97578 2.66022 9.97578L2.70672 9.95778C2.70672 9.95778 2.43747 10.0463 2.15622 10.239C1.98246 10.3496 1.83295 10.4943 1.71672 10.6643C1.57872 10.8668 1.46772 11.1765 1.50897 11.4968C1.57647 12.0383 1.92747 12.363 2.17947 12.5423C2.43447 12.7238 2.67747 12.8085 2.67747 12.8085H2.68347L6.34572 14.0423C6.50997 14.5695 7.46172 17.6985 7.69047 18.4193C7.82547 18.8498 7.95672 19.119 8.12097 19.3245C8.20047 19.4295 8.29347 19.5173 8.40522 19.5878C8.46331 19.6216 8.52526 19.6483 8.58972 19.6673L8.55222 19.6583C8.56347 19.6613 8.57247 19.6703 8.58072 19.6733C8.61072 19.6815 8.63097 19.6845 8.66922 19.6905C9.24897 19.866 9.71472 19.506 9.71472 19.506L9.74097 19.485L11.9032 17.5163L15.5272 20.2965L15.6097 20.3318C16.365 20.6633 17.13 20.4788 17.5342 20.1533C17.9415 19.8255 18.0997 19.4063 18.0997 19.4063L18.126 19.3388L20.9265 4.99203C21.006 4.63803 21.0262 4.30653 20.9385 3.98478C20.848 3.65915 20.639 3.37909 20.3527 3.19953C20.1123 3.05337 19.8335 2.98282 19.5525 2.99703ZM19.4767 4.53453C19.4737 4.58178 19.4827 4.57653 19.4617 4.66728V4.67553L16.6875 18.873C16.6755 18.8933 16.6552 18.9375 16.5997 18.9818C16.5412 19.0283 16.4947 19.0575 16.251 18.9608L11.8185 15.5625L9.14097 18.003L9.70347 14.4105L16.9455 7.66053C17.244 7.38303 17.1442 7.32453 17.1442 7.32453C17.1652 6.98403 16.6935 7.22478 16.6935 7.22478L7.56147 12.882L7.55847 12.867L3.18147 11.3933V11.3903L3.17022 11.388C3.17789 11.3855 3.1854 11.3825 3.19272 11.379L3.21672 11.367L3.23997 11.3588C3.23997 11.3588 7.14822 9.71178 11.121 8.03928C13.11 7.20153 15.114 6.35778 16.6552 5.70678C17.5693 5.32203 18.4843 4.93953 19.4002 4.55928C19.4617 4.53528 19.4325 4.53528 19.4767 4.53528V4.53453Z" fill="#343B3B"/>
</svg>
